<mxfile host="app.diagrams.net" modified="2021-10-23T08:25:54.070Z" agent="5.0 (Macintosh; Intel Mac OS X 10_15_7) AppleWebKit/537.36 (KHTML, like Gecko) Chrome/95.0.4638.54 Safari/537.36" etag="VawIg7ZXU_CoeSJigQtn" version="15.5.6" type="github" pages="3">
  <diagram id="MnqXC2h423LB7Xd4BNIU" name="LOGIN/REGISTER">
    <mxGraphModel dx="1351" dy="796" grid="1" gridSize="10" guides="1" tooltips="1" connect="1" arrows="1" fold="1" page="1" pageScale="1" pageWidth="827" pageHeight="1169" math="0" shadow="0">
      <root>
        <mxCell id="wTF2U-dB1aXwuRrHV7n4-0" />
        <mxCell id="wTF2U-dB1aXwuRrHV7n4-1" parent="wTF2U-dB1aXwuRrHV7n4-0" />
        <mxCell id="vNQKuBtBVNcyg9u1Ehk7-0" value="" style="rounded=1;whiteSpace=wrap;html=1;fontSize=18;" vertex="1" parent="wTF2U-dB1aXwuRrHV7n4-1">
          <mxGeometry x="40" y="60" width="360" height="360" as="geometry" />
        </mxCell>
        <mxCell id="vNQKuBtBVNcyg9u1Ehk7-2" value="LOGIN" style="text;html=1;strokeColor=none;fillColor=none;align=center;verticalAlign=middle;whiteSpace=wrap;rounded=0;fontSize=18;" vertex="1" parent="wTF2U-dB1aXwuRrHV7n4-1">
          <mxGeometry x="195" y="20" width="60" height="30" as="geometry" />
        </mxCell>
        <mxCell id="vNQKuBtBVNcyg9u1Ehk7-3" value="CREATE ACCOUNT" style="text;html=1;strokeColor=none;fillColor=none;align=center;verticalAlign=middle;whiteSpace=wrap;rounded=0;fontSize=18;" vertex="1" parent="wTF2U-dB1aXwuRrHV7n4-1">
          <mxGeometry x="540" y="20" width="170" height="30" as="geometry" />
        </mxCell>
        <mxCell id="vNQKuBtBVNcyg9u1Ehk7-5" value="" style="shape=ext;margin=3;double=1;whiteSpace=wrap;html=1;align=center;fontSize=18;" vertex="1" parent="wTF2U-dB1aXwuRrHV7n4-1">
          <mxGeometry x="110" y="92" width="220" height="260" as="geometry" />
        </mxCell>
        <mxCell id="vNQKuBtBVNcyg9u1Ehk7-7" value="WELCOME" style="text;html=1;strokeColor=none;fillColor=none;align=center;verticalAlign=middle;whiteSpace=wrap;rounded=0;fontSize=18;" vertex="1" parent="wTF2U-dB1aXwuRrHV7n4-1">
          <mxGeometry x="190" y="106" width="60" height="30" as="geometry" />
        </mxCell>
        <mxCell id="vNQKuBtBVNcyg9u1Ehk7-8" value="" style="rounded=0;whiteSpace=wrap;html=1;fontSize=18;" vertex="1" parent="wTF2U-dB1aXwuRrHV7n4-1">
          <mxGeometry x="160" y="150" width="130" height="30" as="geometry" />
        </mxCell>
        <mxCell id="vNQKuBtBVNcyg9u1Ehk7-9" value="name" style="text;html=1;strokeColor=none;fillColor=none;align=center;verticalAlign=middle;whiteSpace=wrap;rounded=0;fontSize=18;" vertex="1" parent="wTF2U-dB1aXwuRrHV7n4-1">
          <mxGeometry x="190" y="150" width="60" height="30" as="geometry" />
        </mxCell>
        <mxCell id="vNQKuBtBVNcyg9u1Ehk7-10" value="" style="rounded=0;whiteSpace=wrap;html=1;fontSize=18;" vertex="1" parent="wTF2U-dB1aXwuRrHV7n4-1">
          <mxGeometry x="160" y="190" width="130" height="30" as="geometry" />
        </mxCell>
        <mxCell id="vNQKuBtBVNcyg9u1Ehk7-11" value="password" style="text;html=1;strokeColor=none;fillColor=none;align=center;verticalAlign=middle;whiteSpace=wrap;rounded=0;fontSize=18;" vertex="1" parent="wTF2U-dB1aXwuRrHV7n4-1">
          <mxGeometry x="190" y="190" width="60" height="30" as="geometry" />
        </mxCell>
        <mxCell id="vNQKuBtBVNcyg9u1Ehk7-12" value="" style="rounded=1;whiteSpace=wrap;html=1;fontSize=18;fillColor=#dae8fc;gradientColor=#7ea6e0;strokeColor=#6c8ebf;" vertex="1" parent="wTF2U-dB1aXwuRrHV7n4-1">
          <mxGeometry x="165" y="250" width="120" height="30" as="geometry" />
        </mxCell>
        <mxCell id="vNQKuBtBVNcyg9u1Ehk7-13" value="&lt;font style=&quot;font-size: 16px&quot;&gt;login&lt;/font&gt;" style="text;html=1;strokeColor=none;fillColor=none;align=center;verticalAlign=middle;whiteSpace=wrap;rounded=0;fontSize=18;" vertex="1" parent="wTF2U-dB1aXwuRrHV7n4-1">
          <mxGeometry x="195" y="250" width="60" height="30" as="geometry" />
        </mxCell>
        <mxCell id="vNQKuBtBVNcyg9u1Ehk7-14" value="" style="rounded=1;whiteSpace=wrap;html=1;fontSize=18;fillColor=#dae8fc;gradientColor=#7ea6e0;strokeColor=#6c8ebf;" vertex="1" parent="wTF2U-dB1aXwuRrHV7n4-1">
          <mxGeometry x="165" y="290" width="120" height="30" as="geometry" />
        </mxCell>
        <mxCell id="vNQKuBtBVNcyg9u1Ehk7-15" value="&lt;span style=&quot;font-size: 16px&quot;&gt;register&lt;/span&gt;" style="text;html=1;strokeColor=none;fillColor=none;align=center;verticalAlign=middle;whiteSpace=wrap;rounded=0;fontSize=18;" vertex="1" parent="wTF2U-dB1aXwuRrHV7n4-1">
          <mxGeometry x="160" y="290" width="130" height="30" as="geometry" />
        </mxCell>
        <mxCell id="vNQKuBtBVNcyg9u1Ehk7-16" value="&lt;font style=&quot;font-size: 12px&quot;&gt;Forgot password?&lt;/font&gt;" style="text;html=1;strokeColor=none;fillColor=none;align=center;verticalAlign=middle;whiteSpace=wrap;rounded=0;fontSize=16;" vertex="1" parent="wTF2U-dB1aXwuRrHV7n4-1">
          <mxGeometry x="185" y="215" width="115" height="30" as="geometry" />
        </mxCell>
        <mxCell id="vNQKuBtBVNcyg9u1Ehk7-17" value="" style="rounded=1;whiteSpace=wrap;html=1;fontSize=18;" vertex="1" parent="wTF2U-dB1aXwuRrHV7n4-1">
          <mxGeometry x="440" y="60" width="360" height="360" as="geometry" />
        </mxCell>
        <mxCell id="vNQKuBtBVNcyg9u1Ehk7-18" value="" style="shape=ext;margin=3;double=1;whiteSpace=wrap;html=1;align=center;fontSize=18;" vertex="1" parent="wTF2U-dB1aXwuRrHV7n4-1">
          <mxGeometry x="510" y="92" width="220" height="288" as="geometry" />
        </mxCell>
        <mxCell id="vNQKuBtBVNcyg9u1Ehk7-19" value="CREATE ACCOUNT" style="text;html=1;strokeColor=none;fillColor=none;align=center;verticalAlign=middle;whiteSpace=wrap;rounded=0;fontSize=18;" vertex="1" parent="wTF2U-dB1aXwuRrHV7n4-1">
          <mxGeometry x="520" y="108" width="200" height="30" as="geometry" />
        </mxCell>
        <mxCell id="vNQKuBtBVNcyg9u1Ehk7-20" value="" style="rounded=0;whiteSpace=wrap;html=1;fontSize=18;" vertex="1" parent="wTF2U-dB1aXwuRrHV7n4-1">
          <mxGeometry x="550" y="150" width="140" height="30" as="geometry" />
        </mxCell>
        <mxCell id="vNQKuBtBVNcyg9u1Ehk7-21" value="name" style="text;html=1;strokeColor=none;fillColor=none;align=center;verticalAlign=middle;whiteSpace=wrap;rounded=0;fontSize=18;" vertex="1" parent="wTF2U-dB1aXwuRrHV7n4-1">
          <mxGeometry x="590" y="150" width="60" height="30" as="geometry" />
        </mxCell>
        <mxCell id="vNQKuBtBVNcyg9u1Ehk7-22" value="" style="rounded=0;whiteSpace=wrap;html=1;fontSize=18;" vertex="1" parent="wTF2U-dB1aXwuRrHV7n4-1">
          <mxGeometry x="550" y="190" width="140" height="30" as="geometry" />
        </mxCell>
        <mxCell id="vNQKuBtBVNcyg9u1Ehk7-23" value="password" style="text;html=1;strokeColor=none;fillColor=none;align=center;verticalAlign=middle;whiteSpace=wrap;rounded=0;fontSize=18;" vertex="1" parent="wTF2U-dB1aXwuRrHV7n4-1">
          <mxGeometry x="590" y="190" width="60" height="30" as="geometry" />
        </mxCell>
        <mxCell id="vNQKuBtBVNcyg9u1Ehk7-24" value="" style="rounded=1;whiteSpace=wrap;html=1;fontSize=18;fillColor=#dae8fc;gradientColor=#7ea6e0;strokeColor=#6c8ebf;" vertex="1" parent="wTF2U-dB1aXwuRrHV7n4-1">
          <mxGeometry x="565" y="280" width="120" height="30" as="geometry" />
        </mxCell>
        <mxCell id="vNQKuBtBVNcyg9u1Ehk7-27" value="&lt;font style=&quot;font-size: 16px&quot;&gt;register&lt;/font&gt;" style="text;html=1;strokeColor=none;fillColor=none;align=center;verticalAlign=middle;whiteSpace=wrap;rounded=0;fontSize=18;" vertex="1" parent="wTF2U-dB1aXwuRrHV7n4-1">
          <mxGeometry x="560" y="280" width="130" height="30" as="geometry" />
        </mxCell>
        <mxCell id="vNQKuBtBVNcyg9u1Ehk7-29" value="" style="rounded=0;whiteSpace=wrap;html=1;fontSize=18;" vertex="1" parent="wTF2U-dB1aXwuRrHV7n4-1">
          <mxGeometry x="550" y="230" width="140" height="30" as="geometry" />
        </mxCell>
        <mxCell id="vNQKuBtBVNcyg9u1Ehk7-30" value="repeat password" style="text;html=1;strokeColor=none;fillColor=none;align=center;verticalAlign=middle;whiteSpace=wrap;rounded=0;fontSize=18;" vertex="1" parent="wTF2U-dB1aXwuRrHV7n4-1">
          <mxGeometry x="546" y="229" width="150" height="30" as="geometry" />
        </mxCell>
        <mxCell id="vNQKuBtBVNcyg9u1Ehk7-26" value="" style="rounded=1;whiteSpace=wrap;html=1;fontSize=18;fillColor=#dae8fc;gradientColor=#7ea6e0;strokeColor=#6c8ebf;" vertex="1" parent="wTF2U-dB1aXwuRrHV7n4-1">
          <mxGeometry x="565" y="320" width="120" height="30" as="geometry" />
        </mxCell>
        <mxCell id="vNQKuBtBVNcyg9u1Ehk7-31" value="&lt;font style=&quot;font-size: 16px&quot;&gt;login&lt;/font&gt;" style="text;html=1;strokeColor=none;fillColor=none;align=center;verticalAlign=middle;whiteSpace=wrap;rounded=0;fontSize=18;" vertex="1" parent="wTF2U-dB1aXwuRrHV7n4-1">
          <mxGeometry x="595" y="320" width="60" height="30" as="geometry" />
        </mxCell>
        <mxCell id="-w5X6_xk07oqxdtsAwv8-0" value="" style="shape=flexArrow;endArrow=classic;html=1;rounded=0;fontSize=12;exitX=1;exitY=0.5;exitDx=0;exitDy=0;" edge="1" parent="wTF2U-dB1aXwuRrHV7n4-1" source="vNQKuBtBVNcyg9u1Ehk7-15">
          <mxGeometry width="50" height="50" relative="1" as="geometry">
            <mxPoint x="340" y="160" as="sourcePoint" />
            <mxPoint x="490" y="260" as="targetPoint" />
          </mxGeometry>
        </mxCell>
        <mxCell id="-w5X6_xk07oqxdtsAwv8-2" value="" style="shape=flexArrow;endArrow=classic;html=1;rounded=0;fontSize=12;entryX=0.889;entryY=0.75;entryDx=0;entryDy=0;entryPerimeter=0;" edge="1" parent="wTF2U-dB1aXwuRrHV7n4-1" target="vNQKuBtBVNcyg9u1Ehk7-0">
          <mxGeometry width="50" height="50" relative="1" as="geometry">
            <mxPoint x="560" y="327.0999999999998" as="sourcePoint" />
            <mxPoint x="450" y="328.19999999999993" as="targetPoint" />
          </mxGeometry>
        </mxCell>
      </root>
    </mxGraphModel>
  </diagram>
  <diagram id="pVPDxXuSj9QUZrEX7Hru" name="MAIN">
    <mxGraphModel dx="1577" dy="928" grid="1" gridSize="10" guides="1" tooltips="1" connect="1" arrows="1" fold="1" page="1" pageScale="1" pageWidth="827" pageHeight="1169" math="0" shadow="0">
      <root>
        <mxCell id="0" />
        <mxCell id="1" parent="0" />
        <mxCell id="FU5SnRE4q-_udUetqIzK-2" value="Home" style="text;strokeColor=none;fillColor=none;html=1;fontSize=24;fontStyle=1;verticalAlign=middle;align=center;fontColor=#1A1A1A;rounded=1;" parent="1" vertex="1">
          <mxGeometry x="260" y="16" width="100" height="40" as="geometry" />
        </mxCell>
        <mxCell id="FU5SnRE4q-_udUetqIzK-3" value="" style="edgeStyle=orthogonalEdgeStyle;startArrow=none;endArrow=none;targetPortConstraint=eastwest;sourcePortConstraint=northsouth;strokeColor=#736CA8;fontColor=#1A1A1A;" parent="1" source="FU5SnRE4q-_udUetqIzK-6" target="FU5SnRE4q-_udUetqIzK-5" edge="1">
          <mxGeometry relative="1" as="geometry">
            <mxPoint x="260" y="170" as="sourcePoint" />
            <Array as="points">
              <mxPoint x="180" y="240" />
              <mxPoint x="180" y="240" />
            </Array>
          </mxGeometry>
        </mxCell>
        <mxCell id="FU5SnRE4q-_udUetqIzK-4" value="" style="edgeStyle=orthogonalEdgeStyle;startArrow=none;endArrow=none;targetPortConstraint=eastwest;sourcePortConstraint=northsouth;strokeColor=#736CA8;fontColor=#1A1A1A;" parent="1" target="FU5SnRE4q-_udUetqIzK-6" edge="1">
          <mxGeometry relative="1" as="geometry">
            <mxPoint x="299" y="140" as="sourcePoint" />
          </mxGeometry>
        </mxCell>
        <mxCell id="FU5SnRE4q-_udUetqIzK-5" value="&lt;font color=&quot;#ffffff&quot;&gt;Snow&lt;/font&gt;" style="whiteSpace=wrap;html=1;align=center;verticalAlign=middle;treeFolding=1;treeMoving=1;fillColor=#5D7F99;strokeColor=#D0CEE2;fontColor=#1A1A1A;rounded=1;" parent="1" vertex="1">
          <mxGeometry x="61" y="210" width="100" height="60" as="geometry" />
        </mxCell>
        <mxCell id="FU5SnRE4q-_udUetqIzK-6" value="&lt;font color=&quot;#ffffff&quot;&gt;Side X Side&lt;/font&gt;" style="whiteSpace=wrap;html=1;align=center;verticalAlign=middle;treeFolding=1;treeMoving=1;fillColor=#5D7F99;strokeColor=#D0CEE2;fontColor=#1A1A1A;rounded=1;" parent="1" vertex="1">
          <mxGeometry x="189" y="210" width="100" height="60" as="geometry" />
        </mxCell>
        <mxCell id="FU5SnRE4q-_udUetqIzK-8" value="" style="edgeStyle=orthogonalEdgeStyle;startArrow=none;endArrow=none;targetPortConstraint=eastwest;sourcePortConstraint=northsouth;strokeColor=#736CA8;fontColor=#1A1A1A;" parent="1" target="FU5SnRE4q-_udUetqIzK-12" edge="1">
          <mxGeometry relative="1" as="geometry">
            <mxPoint x="310" y="140" as="sourcePoint" />
            <Array as="points">
              <mxPoint x="310" y="170" />
              <mxPoint x="310" y="240" />
            </Array>
          </mxGeometry>
        </mxCell>
        <mxCell id="FU5SnRE4q-_udUetqIzK-9" value="&lt;font color=&quot;#ffffff&quot;&gt;Moto III&lt;/font&gt;" style="whiteSpace=wrap;html=1;align=center;verticalAlign=middle;treeFolding=1;treeMoving=1;fillColor=#5D7F99;strokeColor=#D0CEE2;fontColor=#1A1A1A;rounded=1;" parent="1" vertex="1">
          <mxGeometry x="328" y="210" width="100" height="60" as="geometry" />
        </mxCell>
        <mxCell id="FU5SnRE4q-_udUetqIzK-10" value="Dirt bike" style="whiteSpace=wrap;html=1;align=center;verticalAlign=middle;treeFolding=1;treeMoving=1;fillColor=#5D7F99;strokeColor=#D0CEE2;fontColor=#FFFFFF;rounded=1;" parent="1" vertex="1">
          <mxGeometry x="452" y="210" width="100" height="60" as="geometry" />
        </mxCell>
        <mxCell id="FU5SnRE4q-_udUetqIzK-12" value="Street bike" style="whiteSpace=wrap;html=1;align=center;verticalAlign=middle;treeFolding=1;treeMoving=1;fillColor=#5D7F99;strokeColor=#D0CEE2;fontColor=#FFFFFF;rounded=1;" parent="1" vertex="1">
          <mxGeometry x="572" y="210" width="100" height="60" as="geometry" />
        </mxCell>
        <mxCell id="FU5SnRE4q-_udUetqIzK-16" value="" style="shape=table;html=1;whiteSpace=wrap;startSize=0;container=1;collapsible=0;childLayout=tableLayout;fillColor=#5D7F99;strokeColor=#D0CEE2;fontColor=#1A1A1A;rounded=1;" parent="1" vertex="1">
          <mxGeometry x="288" y="330" width="180" height="150" as="geometry" />
        </mxCell>
        <mxCell id="FU5SnRE4q-_udUetqIzK-17" value="" style="shape=partialRectangle;html=1;whiteSpace=wrap;collapsible=0;dropTarget=0;pointerEvents=0;fillColor=none;top=0;left=0;bottom=0;right=0;points=[[0,0.5],[1,0.5]];portConstraint=eastwest;strokeColor=#D0CEE2;fontColor=#1A1A1A;rounded=1;" parent="FU5SnRE4q-_udUetqIzK-16" vertex="1">
          <mxGeometry width="180" height="58" as="geometry" />
        </mxCell>
        <mxCell id="FU5SnRE4q-_udUetqIzK-18" value="" style="shape=partialRectangle;html=1;whiteSpace=wrap;connectable=0;fillColor=none;top=0;left=0;bottom=0;right=0;overflow=hidden;pointerEvents=1;strokeColor=#D0CEE2;fontColor=#1A1A1A;rounded=1;" parent="FU5SnRE4q-_udUetqIzK-17" vertex="1">
          <mxGeometry width="52" height="58" as="geometry">
            <mxRectangle width="52" height="58" as="alternateBounds" />
          </mxGeometry>
        </mxCell>
        <mxCell id="FU5SnRE4q-_udUetqIzK-19" value="" style="shape=partialRectangle;html=1;whiteSpace=wrap;connectable=0;fillColor=none;top=0;left=0;bottom=0;right=0;overflow=hidden;pointerEvents=1;strokeColor=#D0CEE2;fontColor=#1A1A1A;rounded=1;" parent="FU5SnRE4q-_udUetqIzK-17" vertex="1">
          <mxGeometry x="52" width="80" height="58" as="geometry">
            <mxRectangle width="80" height="58" as="alternateBounds" />
          </mxGeometry>
        </mxCell>
        <mxCell id="FU5SnRE4q-_udUetqIzK-20" value="" style="shape=partialRectangle;html=1;whiteSpace=wrap;connectable=0;fillColor=none;top=0;left=0;bottom=0;right=0;overflow=hidden;pointerEvents=1;strokeColor=#D0CEE2;fontColor=#1A1A1A;rounded=1;" parent="FU5SnRE4q-_udUetqIzK-17" vertex="1">
          <mxGeometry x="132" width="48" height="58" as="geometry">
            <mxRectangle width="48" height="58" as="alternateBounds" />
          </mxGeometry>
        </mxCell>
        <mxCell id="FU5SnRE4q-_udUetqIzK-21" value="" style="shape=partialRectangle;html=1;whiteSpace=wrap;collapsible=0;dropTarget=0;pointerEvents=0;fillColor=none;top=0;left=0;bottom=0;right=0;points=[[0,0.5],[1,0.5]];portConstraint=eastwest;strokeColor=#D0CEE2;fontColor=#1A1A1A;rounded=1;" parent="FU5SnRE4q-_udUetqIzK-16" vertex="1">
          <mxGeometry y="58" width="180" height="46" as="geometry" />
        </mxCell>
        <mxCell id="FU5SnRE4q-_udUetqIzK-22" value="" style="shape=partialRectangle;html=1;whiteSpace=wrap;connectable=0;fillColor=none;top=0;left=0;bottom=0;right=0;overflow=hidden;pointerEvents=1;strokeColor=#D0CEE2;fontColor=#1A1A1A;rounded=1;" parent="FU5SnRE4q-_udUetqIzK-21" vertex="1">
          <mxGeometry width="52" height="46" as="geometry">
            <mxRectangle width="52" height="46" as="alternateBounds" />
          </mxGeometry>
        </mxCell>
        <mxCell id="FU5SnRE4q-_udUetqIzK-23" value="" style="shape=partialRectangle;html=1;whiteSpace=wrap;connectable=0;fillColor=none;top=0;left=0;bottom=0;right=0;overflow=hidden;pointerEvents=1;strokeColor=#D0CEE2;fontColor=#1A1A1A;rounded=1;" parent="FU5SnRE4q-_udUetqIzK-21" vertex="1">
          <mxGeometry x="52" width="80" height="46" as="geometry">
            <mxRectangle width="80" height="46" as="alternateBounds" />
          </mxGeometry>
        </mxCell>
        <mxCell id="FU5SnRE4q-_udUetqIzK-24" value="" style="shape=partialRectangle;html=1;whiteSpace=wrap;connectable=0;fillColor=none;top=0;left=0;bottom=0;right=0;overflow=hidden;pointerEvents=1;strokeColor=#D0CEE2;fontColor=#1A1A1A;rounded=1;" parent="FU5SnRE4q-_udUetqIzK-21" vertex="1">
          <mxGeometry x="132" width="48" height="46" as="geometry">
            <mxRectangle width="48" height="46" as="alternateBounds" />
          </mxGeometry>
        </mxCell>
        <mxCell id="FU5SnRE4q-_udUetqIzK-25" value="" style="shape=partialRectangle;html=1;whiteSpace=wrap;collapsible=0;dropTarget=0;pointerEvents=0;fillColor=none;top=0;left=0;bottom=0;right=0;points=[[0,0.5],[1,0.5]];portConstraint=eastwest;strokeColor=#D0CEE2;fontColor=#1A1A1A;rounded=1;" parent="FU5SnRE4q-_udUetqIzK-16" vertex="1">
          <mxGeometry y="104" width="180" height="46" as="geometry" />
        </mxCell>
        <mxCell id="FU5SnRE4q-_udUetqIzK-26" value="" style="shape=partialRectangle;html=1;whiteSpace=wrap;connectable=0;fillColor=none;top=0;left=0;bottom=0;right=0;overflow=hidden;pointerEvents=1;strokeColor=#D0CEE2;fontColor=#1A1A1A;rounded=1;" parent="FU5SnRE4q-_udUetqIzK-25" vertex="1">
          <mxGeometry width="52" height="46" as="geometry">
            <mxRectangle width="52" height="46" as="alternateBounds" />
          </mxGeometry>
        </mxCell>
        <mxCell id="FU5SnRE4q-_udUetqIzK-27" value="" style="shape=partialRectangle;html=1;whiteSpace=wrap;connectable=0;fillColor=none;top=0;left=0;bottom=0;right=0;overflow=hidden;pointerEvents=1;strokeColor=#D0CEE2;fontColor=#1A1A1A;rounded=1;" parent="FU5SnRE4q-_udUetqIzK-25" vertex="1">
          <mxGeometry x="52" width="80" height="46" as="geometry">
            <mxRectangle width="80" height="46" as="alternateBounds" />
          </mxGeometry>
        </mxCell>
        <mxCell id="FU5SnRE4q-_udUetqIzK-28" value="" style="shape=partialRectangle;html=1;whiteSpace=wrap;connectable=0;fillColor=none;top=0;left=0;bottom=0;right=0;overflow=hidden;pointerEvents=1;strokeColor=#D0CEE2;fontColor=#1A1A1A;rounded=1;" parent="FU5SnRE4q-_udUetqIzK-25" vertex="1">
          <mxGeometry x="132" width="48" height="46" as="geometry">
            <mxRectangle width="48" height="46" as="alternateBounds" />
          </mxGeometry>
        </mxCell>
        <UserObject label="&lt;b style=&quot;font-size: 16px&quot;&gt;Helmets &lt;br&gt;&lt;font style=&quot;font-size: 16px&quot;&gt;page&lt;/font&gt;&lt;/b&gt;" placeholders="1" name="Variable" id="FU5SnRE4q-_udUetqIzK-15">
          <mxCell style="text;html=1;strokeColor=none;fillColor=none;align=center;verticalAlign=middle;whiteSpace=wrap;overflow=hidden;fontColor=#FFFFFF;rounded=1;" parent="1" vertex="1">
            <mxGeometry x="342" y="336" width="80" height="40" as="geometry" />
          </mxCell>
        </UserObject>
        <mxCell id="FU5SnRE4q-_udUetqIzK-29" value="" style="line;strokeWidth=4;direction=south;html=1;perimeter=backbonePerimeter;points=[];outlineConnect=0;fillColor=#5D7F99;strokeColor=#D0CEE2;fontColor=#1A1A1A;rounded=1;" parent="1" vertex="1">
          <mxGeometry x="373" y="270" width="10" height="60" as="geometry" />
        </mxCell>
        <UserObject label="Product over:&lt;br&gt;quick view (modal)" placeholders="1" name="Variable" id="q9Oh-w-kviJXUtaA4xf2-2">
          <mxCell style="text;html=1;strokeColor=none;fillColor=none;align=center;verticalAlign=middle;whiteSpace=wrap;overflow=hidden;fontColor=#FFFFFF;rounded=1;" parent="1" vertex="1">
            <mxGeometry x="338" y="431" width="80" height="50" as="geometry" />
          </mxCell>
        </UserObject>
        <mxCell id="o4iu3yJbuD57j3yFJDn3-2" value="" style="endArrow=classic;startArrow=classic;html=1;exitX=1;exitY=0.5;exitDx=0;exitDy=0;strokeColor=#736CA8;fontColor=#1A1A1A;" parent="1" source="q9Oh-w-kviJXUtaA4xf2-2" edge="1">
          <mxGeometry width="50" height="50" relative="1" as="geometry">
            <mxPoint x="390" y="340" as="sourcePoint" />
            <mxPoint x="520" y="456" as="targetPoint" />
          </mxGeometry>
        </mxCell>
        <mxCell id="o4iu3yJbuD57j3yFJDn3-3" value="" style="shape=table;html=1;whiteSpace=wrap;startSize=0;container=1;collapsible=0;childLayout=tableLayout;fillColor=#f5f5f5;strokeColor=#666666;rounded=1;fontColor=#333333;" parent="1" vertex="1">
          <mxGeometry x="520" y="329" width="180" height="150" as="geometry" />
        </mxCell>
        <mxCell id="o4iu3yJbuD57j3yFJDn3-4" value="" style="shape=partialRectangle;html=1;whiteSpace=wrap;collapsible=0;dropTarget=0;pointerEvents=0;fillColor=#f5f5f5;top=0;left=0;bottom=0;right=0;points=[[0,0.5],[1,0.5]];portConstraint=eastwest;strokeColor=#666666;rounded=1;fontColor=#333333;" parent="o4iu3yJbuD57j3yFJDn3-3" vertex="1">
          <mxGeometry width="180" height="58" as="geometry" />
        </mxCell>
        <mxCell id="o4iu3yJbuD57j3yFJDn3-5" value="" style="shape=partialRectangle;html=1;whiteSpace=wrap;connectable=0;fillColor=#f5f5f5;top=0;left=0;bottom=0;right=0;overflow=hidden;pointerEvents=1;strokeColor=#666666;rounded=1;fontColor=#333333;" parent="o4iu3yJbuD57j3yFJDn3-4" vertex="1">
          <mxGeometry width="52" height="58" as="geometry">
            <mxRectangle width="52" height="58" as="alternateBounds" />
          </mxGeometry>
        </mxCell>
        <mxCell id="o4iu3yJbuD57j3yFJDn3-6" value="" style="shape=partialRectangle;html=1;whiteSpace=wrap;connectable=0;fillColor=#f5f5f5;top=0;left=0;bottom=0;right=0;overflow=hidden;pointerEvents=1;strokeColor=#666666;rounded=1;fontColor=#333333;" parent="o4iu3yJbuD57j3yFJDn3-4" vertex="1">
          <mxGeometry x="52" width="80" height="58" as="geometry">
            <mxRectangle width="80" height="58" as="alternateBounds" />
          </mxGeometry>
        </mxCell>
        <mxCell id="o4iu3yJbuD57j3yFJDn3-7" value="" style="shape=partialRectangle;html=1;whiteSpace=wrap;connectable=0;fillColor=#f5f5f5;top=0;left=0;bottom=0;right=0;overflow=hidden;pointerEvents=1;strokeColor=#666666;rounded=1;fontColor=#333333;" parent="o4iu3yJbuD57j3yFJDn3-4" vertex="1">
          <mxGeometry x="132" width="48" height="58" as="geometry">
            <mxRectangle width="48" height="58" as="alternateBounds" />
          </mxGeometry>
        </mxCell>
        <mxCell id="o4iu3yJbuD57j3yFJDn3-8" value="" style="shape=partialRectangle;html=1;whiteSpace=wrap;collapsible=0;dropTarget=0;pointerEvents=0;fillColor=#f5f5f5;top=0;left=0;bottom=0;right=0;points=[[0,0.5],[1,0.5]];portConstraint=eastwest;strokeColor=#666666;rounded=1;fontColor=#333333;" parent="o4iu3yJbuD57j3yFJDn3-3" vertex="1">
          <mxGeometry y="58" width="180" height="46" as="geometry" />
        </mxCell>
        <mxCell id="o4iu3yJbuD57j3yFJDn3-9" value="" style="shape=partialRectangle;html=1;whiteSpace=wrap;connectable=0;fillColor=#f5f5f5;top=0;left=0;bottom=0;right=0;overflow=hidden;pointerEvents=1;strokeColor=#666666;rounded=1;fontColor=#333333;" parent="o4iu3yJbuD57j3yFJDn3-8" vertex="1">
          <mxGeometry width="52" height="46" as="geometry">
            <mxRectangle width="52" height="46" as="alternateBounds" />
          </mxGeometry>
        </mxCell>
        <mxCell id="o4iu3yJbuD57j3yFJDn3-10" value="" style="shape=partialRectangle;html=1;whiteSpace=wrap;connectable=0;fillColor=#f5f5f5;top=0;left=0;bottom=0;right=0;overflow=hidden;pointerEvents=1;strokeColor=#666666;rounded=1;fontColor=#333333;" parent="o4iu3yJbuD57j3yFJDn3-8" vertex="1">
          <mxGeometry x="52" width="80" height="46" as="geometry">
            <mxRectangle width="80" height="46" as="alternateBounds" />
          </mxGeometry>
        </mxCell>
        <mxCell id="o4iu3yJbuD57j3yFJDn3-11" value="" style="shape=partialRectangle;html=1;whiteSpace=wrap;connectable=0;fillColor=#f5f5f5;top=0;left=0;bottom=0;right=0;overflow=hidden;pointerEvents=1;strokeColor=#666666;rounded=1;fontColor=#333333;" parent="o4iu3yJbuD57j3yFJDn3-8" vertex="1">
          <mxGeometry x="132" width="48" height="46" as="geometry">
            <mxRectangle width="48" height="46" as="alternateBounds" />
          </mxGeometry>
        </mxCell>
        <mxCell id="o4iu3yJbuD57j3yFJDn3-12" value="" style="shape=partialRectangle;html=1;whiteSpace=wrap;collapsible=0;dropTarget=0;pointerEvents=0;fillColor=#f5f5f5;top=0;left=0;bottom=0;right=0;points=[[0,0.5],[1,0.5]];portConstraint=eastwest;strokeColor=#666666;rounded=1;fontColor=#333333;" parent="o4iu3yJbuD57j3yFJDn3-3" vertex="1">
          <mxGeometry y="104" width="180" height="46" as="geometry" />
        </mxCell>
        <mxCell id="o4iu3yJbuD57j3yFJDn3-13" value="" style="shape=partialRectangle;html=1;whiteSpace=wrap;connectable=0;fillColor=#f5f5f5;top=0;left=0;bottom=0;right=0;overflow=hidden;pointerEvents=1;strokeColor=#666666;rounded=1;fontColor=#333333;" parent="o4iu3yJbuD57j3yFJDn3-12" vertex="1">
          <mxGeometry width="52" height="46" as="geometry">
            <mxRectangle width="52" height="46" as="alternateBounds" />
          </mxGeometry>
        </mxCell>
        <mxCell id="o4iu3yJbuD57j3yFJDn3-14" value="" style="shape=partialRectangle;html=1;whiteSpace=wrap;connectable=0;fillColor=#f5f5f5;top=0;left=0;bottom=0;right=0;overflow=hidden;pointerEvents=1;strokeColor=#666666;rounded=1;fontColor=#333333;" parent="o4iu3yJbuD57j3yFJDn3-12" vertex="1">
          <mxGeometry x="52" width="80" height="46" as="geometry">
            <mxRectangle width="80" height="46" as="alternateBounds" />
          </mxGeometry>
        </mxCell>
        <mxCell id="o4iu3yJbuD57j3yFJDn3-15" value="" style="shape=partialRectangle;html=1;whiteSpace=wrap;connectable=0;fillColor=#f5f5f5;top=0;left=0;bottom=0;right=0;overflow=hidden;pointerEvents=1;strokeColor=#666666;rounded=1;fontColor=#333333;" parent="o4iu3yJbuD57j3yFJDn3-12" vertex="1">
          <mxGeometry x="132" width="48" height="46" as="geometry">
            <mxRectangle width="48" height="46" as="alternateBounds" />
          </mxGeometry>
        </mxCell>
        <UserObject label="&lt;b style=&quot;font-size: 16px&quot;&gt;Helmets &lt;br&gt;&lt;font style=&quot;font-size: 16px&quot;&gt;page&lt;/font&gt;&lt;/b&gt;" placeholders="1" name="Variable" id="o4iu3yJbuD57j3yFJDn3-16">
          <mxCell style="text;html=1;strokeColor=#666666;fillColor=#f5f5f5;align=center;verticalAlign=middle;whiteSpace=wrap;overflow=hidden;rounded=1;fontColor=#333333;" parent="1" vertex="1">
            <mxGeometry x="574" y="335" width="80" height="40" as="geometry" />
          </mxCell>
        </UserObject>
        <UserObject label="Product over:&lt;br&gt;quick view (modal)" placeholders="1" name="Variable" id="o4iu3yJbuD57j3yFJDn3-17">
          <mxCell style="text;html=1;strokeColor=#666666;fillColor=#f5f5f5;align=center;verticalAlign=middle;whiteSpace=wrap;overflow=hidden;rounded=1;fontColor=#333333;" parent="1" vertex="1">
            <mxGeometry x="570" y="430" width="80" height="50" as="geometry" />
          </mxCell>
        </UserObject>
        <mxCell id="o4iu3yJbuD57j3yFJDn3-18" value="" style="shape=ext;double=1;whiteSpace=wrap;html=1;fontSize=16;fillColor=#f5f5f5;strokeColor=#666666;rounded=1;fontColor=#333333;" parent="1" vertex="1">
          <mxGeometry x="540" y="340" width="150" height="130" as="geometry" />
        </mxCell>
        <mxCell id="o4iu3yJbuD57j3yFJDn3-19" value="Product&lt;br&gt;modal" style="text;strokeColor=#666666;fillColor=#f5f5f5;html=1;fontSize=24;fontStyle=1;verticalAlign=middle;align=center;rounded=1;fontColor=#333333;" parent="1" vertex="1">
          <mxGeometry x="561.5" y="350" width="105" height="60" as="geometry" />
        </mxCell>
        <mxCell id="o4iu3yJbuD57j3yFJDn3-20" value="Purchase" style="labelPosition=center;verticalLabelPosition=middle;align=center;html=1;shape=mxgraph.basic.button;dx=10;fillColor=#f5f5f5;strokeColor=#666666;rounded=1;fontColor=#333333;" parent="1" vertex="1">
          <mxGeometry x="570" y="417" width="96" height="40" as="geometry" />
        </mxCell>
        <mxCell id="o4iu3yJbuD57j3yFJDn3-22" value="" style="shape=ext;double=1;whiteSpace=wrap;html=1;fillColor=#5D7F99;strokeColor=#D0CEE2;fontColor=#1A1A1A;rounded=1;" parent="1" vertex="1">
          <mxGeometry x="190" y="60" width="240" height="120" as="geometry" />
        </mxCell>
        <mxCell id="o4iu3yJbuD57j3yFJDn3-25" value="" style="whiteSpace=wrap;html=1;fillColor=#5D7F99;strokeColor=#D0CEE2;fontColor=#1A1A1A;rounded=1;" parent="1" vertex="1">
          <mxGeometry x="190" y="60" width="240" height="40" as="geometry" />
        </mxCell>
        <mxCell id="bGzOFAMTVn4kiEveAO2B-2" value="" style="shape=actor;whiteSpace=wrap;html=1;fillColor=#5D7F99;strokeColor=#D0CEE2;fontColor=#1A1A1A;rounded=1;" parent="1" vertex="1">
          <mxGeometry x="399" y="71" width="18" height="25" as="geometry" />
        </mxCell>
        <mxCell id="bGzOFAMTVn4kiEveAO2B-3" value="&lt;font color=&quot;#ffffff&quot;&gt;Login&lt;/font&gt;" style="whiteSpace=wrap;html=1;arcSize=50;align=center;verticalAlign=middle;strokeWidth=1;autosize=1;spacing=4;treeFolding=1;treeMoving=1;newEdgeStyle={&quot;edgeStyle&quot;:&quot;entityRelationEdgeStyle&quot;,&quot;startArrow&quot;:&quot;none&quot;,&quot;endArrow&quot;:&quot;none&quot;,&quot;segment&quot;:10,&quot;curved&quot;:1};fillColor=#5D7F99;strokeColor=#D0CEE2;fontColor=#1A1A1A;rounded=1;" parent="1" vertex="1" collapsed="1">
          <mxGeometry x="455" y="38" width="70" height="30" as="geometry" />
        </mxCell>
        <mxCell id="bGzOFAMTVn4kiEveAO2B-4" value="" style="edgeStyle=entityRelationEdgeStyle;startArrow=none;endArrow=none;segment=10;strokeColor=#736CA8;fontColor=#1A1A1A;" parent="1" target="bGzOFAMTVn4kiEveAO2B-3" edge="1">
          <mxGeometry relative="1" as="geometry">
            <mxPoint x="414" y="89" as="sourcePoint" />
          </mxGeometry>
        </mxCell>
        <mxCell id="bGzOFAMTVn4kiEveAO2B-6" value="logout" style="whiteSpace=wrap;html=1;arcSize=50;align=center;verticalAlign=middle;strokeWidth=1;autosize=1;spacing=4;treeFolding=1;treeMoving=1;newEdgeStyle={&quot;edgeStyle&quot;:&quot;entityRelationEdgeStyle&quot;,&quot;startArrow&quot;:&quot;none&quot;,&quot;endArrow&quot;:&quot;none&quot;,&quot;segment&quot;:10,&quot;curved&quot;:1};fillColor=#5D7F99;strokeColor=#D0CEE2;fontColor=#FFFFFF;rounded=1;" parent="1" vertex="1">
          <mxGeometry x="463" y="94" width="70" height="30" as="geometry" />
        </mxCell>
        <mxCell id="bGzOFAMTVn4kiEveAO2B-7" value="" style="edgeStyle=entityRelationEdgeStyle;startArrow=none;endArrow=none;segment=10;strokeColor=#736CA8;fontColor=#1A1A1A;" parent="1" target="bGzOFAMTVn4kiEveAO2B-6" edge="1">
          <mxGeometry relative="1" as="geometry">
            <mxPoint x="420" y="90" as="sourcePoint" />
          </mxGeometry>
        </mxCell>
        <mxCell id="bGzOFAMTVn4kiEveAO2B-8" value="&lt;ul&gt;&lt;li&gt;Login link&lt;/li&gt;&lt;li&gt;Avatar anonimo&lt;/li&gt;&lt;/ul&gt;" style="text;strokeColor=none;fillColor=none;html=1;whiteSpace=wrap;verticalAlign=middle;overflow=hidden;fontColor=#1A1A1A;rounded=1;" parent="1" vertex="1">
          <mxGeometry x="510" y="10" width="140" height="50" as="geometry" />
        </mxCell>
        <mxCell id="bGzOFAMTVn4kiEveAO2B-9" value="&lt;ul&gt;&lt;li&gt;Avatar user: link to profile page&lt;/li&gt;&lt;li&gt;User name&lt;/li&gt;&lt;li&gt;Logout: inside profile page&lt;/li&gt;&lt;/ul&gt;" style="text;strokeColor=none;fillColor=none;html=1;whiteSpace=wrap;verticalAlign=middle;overflow=hidden;fontColor=#1A1A1A;rounded=1;" parent="1" vertex="1">
          <mxGeometry x="520" y="80" width="220" height="70" as="geometry" />
        </mxCell>
        <mxCell id="cGs_03ZNSz6BVhEa7uy2-12" value="" style="shape=table;html=1;whiteSpace=wrap;startSize=0;container=1;collapsible=0;childLayout=tableLayout;fillColor=#5D7F99;strokeColor=#D0CEE2;fontColor=#1A1A1A;rounded=1;" parent="1" vertex="1">
          <mxGeometry x="292" y="530" width="180" height="150" as="geometry" />
        </mxCell>
        <mxCell id="cGs_03ZNSz6BVhEa7uy2-13" value="" style="shape=partialRectangle;html=1;whiteSpace=wrap;collapsible=0;dropTarget=0;pointerEvents=0;fillColor=none;top=0;left=0;bottom=0;right=0;points=[[0,0.5],[1,0.5]];portConstraint=eastwest;strokeColor=#D0CEE2;fontColor=#1A1A1A;rounded=1;" parent="cGs_03ZNSz6BVhEa7uy2-12" vertex="1">
          <mxGeometry width="180" height="58" as="geometry" />
        </mxCell>
        <mxCell id="cGs_03ZNSz6BVhEa7uy2-14" value="" style="shape=partialRectangle;html=1;whiteSpace=wrap;connectable=0;fillColor=none;top=0;left=0;bottom=0;right=0;overflow=hidden;pointerEvents=1;strokeColor=#D0CEE2;fontColor=#1A1A1A;rounded=1;" parent="cGs_03ZNSz6BVhEa7uy2-13" vertex="1">
          <mxGeometry width="52" height="58" as="geometry">
            <mxRectangle width="52" height="58" as="alternateBounds" />
          </mxGeometry>
        </mxCell>
        <mxCell id="cGs_03ZNSz6BVhEa7uy2-15" value="" style="shape=partialRectangle;html=1;whiteSpace=wrap;connectable=0;fillColor=none;top=0;left=0;bottom=0;right=0;overflow=hidden;pointerEvents=1;strokeColor=#D0CEE2;fontColor=#1A1A1A;rounded=1;" parent="cGs_03ZNSz6BVhEa7uy2-13" vertex="1">
          <mxGeometry x="52" width="80" height="58" as="geometry">
            <mxRectangle width="80" height="58" as="alternateBounds" />
          </mxGeometry>
        </mxCell>
        <mxCell id="cGs_03ZNSz6BVhEa7uy2-16" value="" style="shape=partialRectangle;html=1;whiteSpace=wrap;connectable=0;fillColor=none;top=0;left=0;bottom=0;right=0;overflow=hidden;pointerEvents=1;strokeColor=#D0CEE2;fontColor=#1A1A1A;rounded=1;" parent="cGs_03ZNSz6BVhEa7uy2-13" vertex="1">
          <mxGeometry x="132" width="48" height="58" as="geometry">
            <mxRectangle width="48" height="58" as="alternateBounds" />
          </mxGeometry>
        </mxCell>
        <mxCell id="cGs_03ZNSz6BVhEa7uy2-17" value="" style="shape=partialRectangle;html=1;whiteSpace=wrap;collapsible=0;dropTarget=0;pointerEvents=0;fillColor=none;top=0;left=0;bottom=0;right=0;points=[[0,0.5],[1,0.5]];portConstraint=eastwest;strokeColor=#D0CEE2;fontColor=#1A1A1A;rounded=1;" parent="cGs_03ZNSz6BVhEa7uy2-12" vertex="1">
          <mxGeometry y="58" width="180" height="46" as="geometry" />
        </mxCell>
        <mxCell id="cGs_03ZNSz6BVhEa7uy2-18" value="" style="shape=partialRectangle;html=1;whiteSpace=wrap;connectable=0;fillColor=none;top=0;left=0;bottom=0;right=0;overflow=hidden;pointerEvents=1;strokeColor=#D0CEE2;fontColor=#1A1A1A;rounded=1;" parent="cGs_03ZNSz6BVhEa7uy2-17" vertex="1">
          <mxGeometry width="52" height="46" as="geometry">
            <mxRectangle width="52" height="46" as="alternateBounds" />
          </mxGeometry>
        </mxCell>
        <mxCell id="cGs_03ZNSz6BVhEa7uy2-19" value="" style="shape=partialRectangle;html=1;whiteSpace=wrap;connectable=0;fillColor=none;top=0;left=0;bottom=0;right=0;overflow=hidden;pointerEvents=1;strokeColor=#D0CEE2;fontColor=#1A1A1A;rounded=1;" parent="cGs_03ZNSz6BVhEa7uy2-17" vertex="1">
          <mxGeometry x="52" width="80" height="46" as="geometry">
            <mxRectangle width="80" height="46" as="alternateBounds" />
          </mxGeometry>
        </mxCell>
        <mxCell id="cGs_03ZNSz6BVhEa7uy2-20" value="" style="shape=partialRectangle;html=1;whiteSpace=wrap;connectable=0;fillColor=none;top=0;left=0;bottom=0;right=0;overflow=hidden;pointerEvents=1;strokeColor=#D0CEE2;fontColor=#1A1A1A;rounded=1;" parent="cGs_03ZNSz6BVhEa7uy2-17" vertex="1">
          <mxGeometry x="132" width="48" height="46" as="geometry">
            <mxRectangle width="48" height="46" as="alternateBounds" />
          </mxGeometry>
        </mxCell>
        <mxCell id="cGs_03ZNSz6BVhEa7uy2-21" value="" style="shape=partialRectangle;html=1;whiteSpace=wrap;collapsible=0;dropTarget=0;pointerEvents=0;fillColor=none;top=0;left=0;bottom=0;right=0;points=[[0,0.5],[1,0.5]];portConstraint=eastwest;strokeColor=#D0CEE2;fontColor=#1A1A1A;rounded=1;" parent="cGs_03ZNSz6BVhEa7uy2-12" vertex="1">
          <mxGeometry y="104" width="180" height="46" as="geometry" />
        </mxCell>
        <mxCell id="cGs_03ZNSz6BVhEa7uy2-22" value="" style="shape=partialRectangle;html=1;whiteSpace=wrap;connectable=0;fillColor=none;top=0;left=0;bottom=0;right=0;overflow=hidden;pointerEvents=1;strokeColor=#D0CEE2;fontColor=#1A1A1A;rounded=1;" parent="cGs_03ZNSz6BVhEa7uy2-21" vertex="1">
          <mxGeometry width="52" height="46" as="geometry">
            <mxRectangle width="52" height="46" as="alternateBounds" />
          </mxGeometry>
        </mxCell>
        <mxCell id="cGs_03ZNSz6BVhEa7uy2-23" value="" style="shape=partialRectangle;html=1;whiteSpace=wrap;connectable=0;fillColor=none;top=0;left=0;bottom=0;right=0;overflow=hidden;pointerEvents=1;strokeColor=#D0CEE2;fontColor=#1A1A1A;rounded=1;" parent="cGs_03ZNSz6BVhEa7uy2-21" vertex="1">
          <mxGeometry x="52" width="80" height="46" as="geometry">
            <mxRectangle width="80" height="46" as="alternateBounds" />
          </mxGeometry>
        </mxCell>
        <mxCell id="cGs_03ZNSz6BVhEa7uy2-24" value="" style="shape=partialRectangle;html=1;whiteSpace=wrap;connectable=0;fillColor=none;top=0;left=0;bottom=0;right=0;overflow=hidden;pointerEvents=1;strokeColor=#D0CEE2;fontColor=#1A1A1A;rounded=1;" parent="cGs_03ZNSz6BVhEa7uy2-21" vertex="1">
          <mxGeometry x="132" width="48" height="46" as="geometry">
            <mxRectangle width="48" height="46" as="alternateBounds" />
          </mxGeometry>
        </mxCell>
        <UserObject label="&lt;b style=&quot;font-size: 16px&quot;&gt;Helmets &lt;br&gt;&lt;font style=&quot;font-size: 16px&quot;&gt;page&lt;/font&gt;&lt;/b&gt;" placeholders="1" name="Variable" id="cGs_03ZNSz6BVhEa7uy2-25">
          <mxCell style="text;html=1;strokeColor=none;fillColor=none;align=center;verticalAlign=middle;whiteSpace=wrap;overflow=hidden;fontColor=#FFFFFF;rounded=1;" parent="1" vertex="1">
            <mxGeometry x="346" y="536" width="80" height="40" as="geometry" />
          </mxCell>
        </UserObject>
        <UserObject label="Product click: add to cart" placeholders="1" name="Variable" id="cGs_03ZNSz6BVhEa7uy2-26">
          <mxCell style="text;html=1;strokeColor=none;fillColor=none;align=center;verticalAlign=middle;whiteSpace=wrap;overflow=hidden;fontColor=#FFFFFF;rounded=1;" parent="1" vertex="1">
            <mxGeometry x="342" y="631" width="80" height="50" as="geometry" />
          </mxCell>
        </UserObject>
        <mxCell id="cGs_03ZNSz6BVhEa7uy2-27" value="" style="endArrow=classic;html=1;rounded=0;fontColor=#FFFFFF;entryX=0.4;entryY=0.1;entryDx=0;entryDy=0;entryPerimeter=0;" parent="1" source="q9Oh-w-kviJXUtaA4xf2-2" target="cGs_03ZNSz6BVhEa7uy2-25" edge="1">
          <mxGeometry width="50" height="50" relative="1" as="geometry">
            <mxPoint x="353" y="550" as="sourcePoint" />
            <mxPoint x="403" y="500" as="targetPoint" />
          </mxGeometry>
        </mxCell>
        <mxCell id="cGs_03ZNSz6BVhEa7uy2-28" value="" style="rounded=1;whiteSpace=wrap;html=1;fillColor=#1ba1e2;strokeColor=#006EAF;fontColor=#ffffff;" parent="1" vertex="1">
          <mxGeometry x="418" y="536" width="102" height="134" as="geometry" />
        </mxCell>
        <UserObject label="Shopping cart" placeholders="1" name="Variable" id="cGs_03ZNSz6BVhEa7uy2-29">
          <mxCell style="text;html=1;strokeColor=none;fillColor=none;align=center;verticalAlign=middle;whiteSpace=wrap;overflow=hidden;fontColor=#FFFFFF;rounded=1;" parent="1" vertex="1">
            <mxGeometry x="432" y="540" width="80" height="24" as="geometry" />
          </mxCell>
        </UserObject>
        <mxCell id="cGs_03ZNSz6BVhEa7uy2-30" value="&lt;ol&gt;&lt;li&gt;Product&lt;/li&gt;&lt;li&gt;Product&lt;/li&gt;&lt;li&gt;Product&lt;/li&gt;&lt;/ol&gt;" style="text;strokeColor=none;fillColor=none;html=1;whiteSpace=wrap;verticalAlign=middle;overflow=hidden;fontColor=#FFFFFF;" parent="1" vertex="1">
          <mxGeometry x="425" y="549" width="90" height="60" as="geometry" />
        </mxCell>
        <mxCell id="DOTY3nVxpAJBj03apLB7-1" value="Purchase" style="labelPosition=center;verticalLabelPosition=middle;align=center;html=1;shape=mxgraph.basic.button;dx=10;fillColor=#f5f5f5;strokeColor=#666666;rounded=1;fontColor=#333333;" vertex="1" parent="1">
          <mxGeometry x="432" y="620" width="81" height="41" as="geometry" />
        </mxCell>
        <mxCell id="DOTY3nVxpAJBj03apLB7-2" value="" style="shape=table;html=1;whiteSpace=wrap;startSize=0;container=1;collapsible=0;childLayout=tableLayout;fillColor=#f5f5f5;strokeColor=#666666;rounded=1;fontColor=#333333;" vertex="1" parent="1">
          <mxGeometry x="530" y="519" width="180" height="150" as="geometry" />
        </mxCell>
        <mxCell id="DOTY3nVxpAJBj03apLB7-3" value="" style="shape=partialRectangle;html=1;whiteSpace=wrap;collapsible=0;dropTarget=0;pointerEvents=0;fillColor=#f5f5f5;top=0;left=0;bottom=0;right=0;points=[[0,0.5],[1,0.5]];portConstraint=eastwest;strokeColor=#666666;rounded=1;fontColor=#333333;" vertex="1" parent="DOTY3nVxpAJBj03apLB7-2">
          <mxGeometry width="180" height="58" as="geometry" />
        </mxCell>
        <mxCell id="DOTY3nVxpAJBj03apLB7-4" value="" style="shape=partialRectangle;html=1;whiteSpace=wrap;connectable=0;fillColor=#f5f5f5;top=0;left=0;bottom=0;right=0;overflow=hidden;pointerEvents=1;strokeColor=#666666;rounded=1;fontColor=#333333;" vertex="1" parent="DOTY3nVxpAJBj03apLB7-3">
          <mxGeometry width="52" height="58" as="geometry">
            <mxRectangle width="52" height="58" as="alternateBounds" />
          </mxGeometry>
        </mxCell>
        <mxCell id="DOTY3nVxpAJBj03apLB7-5" value="" style="shape=partialRectangle;html=1;whiteSpace=wrap;connectable=0;fillColor=#f5f5f5;top=0;left=0;bottom=0;right=0;overflow=hidden;pointerEvents=1;strokeColor=#666666;rounded=1;fontColor=#333333;" vertex="1" parent="DOTY3nVxpAJBj03apLB7-3">
          <mxGeometry x="52" width="80" height="58" as="geometry">
            <mxRectangle width="80" height="58" as="alternateBounds" />
          </mxGeometry>
        </mxCell>
        <mxCell id="DOTY3nVxpAJBj03apLB7-6" value="" style="shape=partialRectangle;html=1;whiteSpace=wrap;connectable=0;fillColor=#f5f5f5;top=0;left=0;bottom=0;right=0;overflow=hidden;pointerEvents=1;strokeColor=#666666;rounded=1;fontColor=#333333;" vertex="1" parent="DOTY3nVxpAJBj03apLB7-3">
          <mxGeometry x="132" width="48" height="58" as="geometry">
            <mxRectangle width="48" height="58" as="alternateBounds" />
          </mxGeometry>
        </mxCell>
        <mxCell id="DOTY3nVxpAJBj03apLB7-7" value="" style="shape=partialRectangle;html=1;whiteSpace=wrap;collapsible=0;dropTarget=0;pointerEvents=0;fillColor=#f5f5f5;top=0;left=0;bottom=0;right=0;points=[[0,0.5],[1,0.5]];portConstraint=eastwest;strokeColor=#666666;rounded=1;fontColor=#333333;" vertex="1" parent="DOTY3nVxpAJBj03apLB7-2">
          <mxGeometry y="58" width="180" height="46" as="geometry" />
        </mxCell>
        <mxCell id="DOTY3nVxpAJBj03apLB7-8" value="" style="shape=partialRectangle;html=1;whiteSpace=wrap;connectable=0;fillColor=#f5f5f5;top=0;left=0;bottom=0;right=0;overflow=hidden;pointerEvents=1;strokeColor=#666666;rounded=1;fontColor=#333333;" vertex="1" parent="DOTY3nVxpAJBj03apLB7-7">
          <mxGeometry width="52" height="46" as="geometry">
            <mxRectangle width="52" height="46" as="alternateBounds" />
          </mxGeometry>
        </mxCell>
        <mxCell id="DOTY3nVxpAJBj03apLB7-9" value="" style="shape=partialRectangle;html=1;whiteSpace=wrap;connectable=0;fillColor=#f5f5f5;top=0;left=0;bottom=0;right=0;overflow=hidden;pointerEvents=1;strokeColor=#666666;rounded=1;fontColor=#333333;" vertex="1" parent="DOTY3nVxpAJBj03apLB7-7">
          <mxGeometry x="52" width="80" height="46" as="geometry">
            <mxRectangle width="80" height="46" as="alternateBounds" />
          </mxGeometry>
        </mxCell>
        <mxCell id="DOTY3nVxpAJBj03apLB7-10" value="" style="shape=partialRectangle;html=1;whiteSpace=wrap;connectable=0;fillColor=#f5f5f5;top=0;left=0;bottom=0;right=0;overflow=hidden;pointerEvents=1;strokeColor=#666666;rounded=1;fontColor=#333333;" vertex="1" parent="DOTY3nVxpAJBj03apLB7-7">
          <mxGeometry x="132" width="48" height="46" as="geometry">
            <mxRectangle width="48" height="46" as="alternateBounds" />
          </mxGeometry>
        </mxCell>
        <mxCell id="DOTY3nVxpAJBj03apLB7-11" value="" style="shape=partialRectangle;html=1;whiteSpace=wrap;collapsible=0;dropTarget=0;pointerEvents=0;fillColor=#f5f5f5;top=0;left=0;bottom=0;right=0;points=[[0,0.5],[1,0.5]];portConstraint=eastwest;strokeColor=#666666;rounded=1;fontColor=#333333;" vertex="1" parent="DOTY3nVxpAJBj03apLB7-2">
          <mxGeometry y="104" width="180" height="46" as="geometry" />
        </mxCell>
        <mxCell id="DOTY3nVxpAJBj03apLB7-12" value="" style="shape=partialRectangle;html=1;whiteSpace=wrap;connectable=0;fillColor=#f5f5f5;top=0;left=0;bottom=0;right=0;overflow=hidden;pointerEvents=1;strokeColor=#666666;rounded=1;fontColor=#333333;" vertex="1" parent="DOTY3nVxpAJBj03apLB7-11">
          <mxGeometry width="52" height="46" as="geometry">
            <mxRectangle width="52" height="46" as="alternateBounds" />
          </mxGeometry>
        </mxCell>
        <mxCell id="DOTY3nVxpAJBj03apLB7-13" value="" style="shape=partialRectangle;html=1;whiteSpace=wrap;connectable=0;fillColor=#f5f5f5;top=0;left=0;bottom=0;right=0;overflow=hidden;pointerEvents=1;strokeColor=#666666;rounded=1;fontColor=#333333;" vertex="1" parent="DOTY3nVxpAJBj03apLB7-11">
          <mxGeometry x="52" width="80" height="46" as="geometry">
            <mxRectangle width="80" height="46" as="alternateBounds" />
          </mxGeometry>
        </mxCell>
        <mxCell id="DOTY3nVxpAJBj03apLB7-14" value="" style="shape=partialRectangle;html=1;whiteSpace=wrap;connectable=0;fillColor=#f5f5f5;top=0;left=0;bottom=0;right=0;overflow=hidden;pointerEvents=1;strokeColor=#666666;rounded=1;fontColor=#333333;" vertex="1" parent="DOTY3nVxpAJBj03apLB7-11">
          <mxGeometry x="132" width="48" height="46" as="geometry">
            <mxRectangle width="48" height="46" as="alternateBounds" />
          </mxGeometry>
        </mxCell>
        <UserObject label="&lt;b style=&quot;font-size: 16px&quot;&gt;Helmets &lt;br&gt;&lt;font style=&quot;font-size: 16px&quot;&gt;page&lt;/font&gt;&lt;/b&gt;" placeholders="1" name="Variable" id="DOTY3nVxpAJBj03apLB7-15">
          <mxCell style="text;html=1;strokeColor=#666666;fillColor=#f5f5f5;align=center;verticalAlign=middle;whiteSpace=wrap;overflow=hidden;rounded=1;fontColor=#333333;" vertex="1" parent="1">
            <mxGeometry x="584" y="525" width="80" height="40" as="geometry" />
          </mxCell>
        </UserObject>
        <UserObject label="Product over:&lt;br&gt;quick view (modal)" placeholders="1" name="Variable" id="DOTY3nVxpAJBj03apLB7-16">
          <mxCell style="text;html=1;strokeColor=#666666;fillColor=#f5f5f5;align=center;verticalAlign=middle;whiteSpace=wrap;overflow=hidden;rounded=1;fontColor=#333333;" vertex="1" parent="1">
            <mxGeometry x="580" y="620" width="80" height="50" as="geometry" />
          </mxCell>
        </UserObject>
        <mxCell id="DOTY3nVxpAJBj03apLB7-17" value="&lt;span style=&quot;color: rgb(51 , 51 , 51) ; font-family: &amp;#34;helvetica&amp;#34; ; font-size: 24px ; font-style: normal ; font-weight: 700 ; letter-spacing: normal ; text-align: center ; text-indent: 0px ; text-transform: none ; word-spacing: 0px ; background-color: rgb(248 , 249 , 250) ; display: inline ; float: none&quot;&gt;Shopping&lt;/span&gt;&lt;br style=&quot;color: rgb(51 , 51 , 51) ; font-family: &amp;#34;helvetica&amp;#34; ; font-size: 24px ; font-style: normal ; font-weight: 700 ; letter-spacing: normal ; text-align: center ; text-indent: 0px ; text-transform: none ; word-spacing: 0px ; background-color: rgb(248 , 249 , 250)&quot;&gt;&lt;span style=&quot;color: rgb(51 , 51 , 51) ; font-family: &amp;#34;helvetica&amp;#34; ; font-style: normal ; letter-spacing: normal ; text-align: center ; text-indent: 0px ; text-transform: none ; word-spacing: 0px ; background-color: rgb(248 , 249 , 250) ; display: inline ; float: none&quot;&gt;&lt;b style=&quot;font-size: 24px&quot;&gt;form&lt;/b&gt;&lt;br&gt;&lt;font style=&quot;font-size: 18px&quot;&gt;(steps modal)&lt;/font&gt;&lt;br&gt;&lt;/span&gt;" style="shape=ext;double=1;whiteSpace=wrap;html=1;fontSize=16;fillColor=#f5f5f5;strokeColor=#666666;rounded=1;fontColor=#333333;" vertex="1" parent="1">
          <mxGeometry x="547" y="531" width="150" height="130" as="geometry" />
        </mxCell>
        <mxCell id="DOTY3nVxpAJBj03apLB7-20" value="" style="edgeStyle=orthogonalEdgeStyle;rounded=0;orthogonalLoop=1;jettySize=auto;html=1;fontSize=18;" edge="1" parent="1" source="o4iu3yJbuD57j3yFJDn3-12" target="q9Oh-w-kviJXUtaA4xf2-2">
          <mxGeometry relative="1" as="geometry" />
        </mxCell>
        <mxCell id="DOTY3nVxpAJBj03apLB7-22" value="" style="endArrow=classic;html=1;rounded=0;fontSize=18;" edge="1" parent="1">
          <mxGeometry width="50" height="50" relative="1" as="geometry">
            <mxPoint x="497" y="650" as="sourcePoint" />
            <mxPoint x="547" y="600" as="targetPoint" />
          </mxGeometry>
        </mxCell>
      </root>
    </mxGraphModel>
  </diagram>
  <diagram id="r_yt_vy921y-kndeR2Si" name="SHOPPING FORM">
    <mxGraphModel dx="946" dy="557" grid="1" gridSize="10" guides="1" tooltips="1" connect="1" arrows="1" fold="1" page="1" pageScale="1" pageWidth="827" pageHeight="1169" math="0" shadow="0">
      <root>
        <mxCell id="kv-M4er5NPswBYFA4VXZ-0" />
        <mxCell id="kv-M4er5NPswBYFA4VXZ-1" parent="kv-M4er5NPswBYFA4VXZ-0" />
      </root>
    </mxGraphModel>
  </diagram>
</mxfile>
